<svg xmlns="http://www.w3.org/2000/svg" width="70" height="70" viewBox="0 0 70 70">
  <g id="Group_2" data-name="Group 2" transform="translate(-527 -238)">
    <circle id="Ellipse_1" data-name="Ellipse 1" cx="35" cy="35" r="35" transform="translate(527 238)" fill="#f7f7f7"/>
    <g id="avatar_1_" data-name="avatar (1)" transform="translate(510.971 255.423)">
      <g id="Group_1" data-name="Group 1" transform="translate(36.073)">
        <path id="Path_1" data-name="Path 1" d="M144.743,19.426h.239a6.889,6.889,0,0,0,5.264-2.277c2.874-3.24,2.4-8.795,2.344-9.325-.187-3.979-2.068-5.883-3.621-6.772A8.3,8.3,0,0,0,144.952,0h-.127a8.314,8.314,0,0,0-4.017,1.023c-1.568.888-3.479,2.792-3.666,6.8-.052.53-.53,6.085,2.344,9.325A6.862,6.862,0,0,0,144.743,19.426ZM139.136,8.011c0-.022.007-.045.007-.06.246-5.353,4.047-5.928,5.674-5.928h.09c2.016.045,5.443.866,5.674,5.928a.145.145,0,0,0,.007.06c.007.052.53,5.129-1.844,7.8a4.893,4.893,0,0,1-3.845,1.6h-.075a4.877,4.877,0,0,1-3.838-1.6C138.621,13.155,139.129,8.056,139.136,8.011Z" transform="translate(-129.54)" fill="#161f82"/>
        <path id="Path_2" data-name="Path 2" d="M66.738,268.529v-.022c0-.06-.007-.119-.007-.187-.045-1.478-.142-4.935-3.382-6.04l-.075-.022a21.543,21.543,0,0,1-6.2-2.822,1.008,1.008,0,0,0-1.157,1.65,23.252,23.252,0,0,0,6.816,3.113c1.74.62,1.934,2.479,1.986,4.181a1.5,1.5,0,0,0,.007.187,13.553,13.553,0,0,1-.157,2.307,27.477,27.477,0,0,1-13.163,3.061,27.634,27.634,0,0,1-13.17-3.069,12.828,12.828,0,0,1-.157-2.307c0-.06.007-.119.007-.187.052-1.7.246-3.561,1.986-4.181a23.467,23.467,0,0,0,6.816-3.113,1.008,1.008,0,1,0-1.157-1.65,21.306,21.306,0,0,1-6.2,2.822c-.03.007-.052.015-.075.022-3.24,1.112-3.337,4.569-3.382,6.04a1.5,1.5,0,0,1-.007.187v.022a11.449,11.449,0,0,0,.381,3.382.958.958,0,0,0,.388.47c.224.149,5.592,3.569,14.574,3.569s14.35-3.427,14.574-3.569a1,1,0,0,0,.388-.47A12.012,12.012,0,0,0,66.738,268.529Z" transform="translate(-36.073 -239.889)" fill="#161f82"/>
      </g>
    </g>
  </g>
</svg>
