<svg height="511pt" viewBox="-24 0 511 511.997" width="511pt" xmlns="http://www.w3.org/2000/svg"><path d="m452.707031 267.480469c-23.527343-23.421875-50.726562-1.5-50.726562-1.5v-123.300781c0-4.140626-3.355469-7.5-7.496094-7.5-4.144531 0-7.5 3.359374-7.5 7.5v133.851562s-35.761719 28.191406-51.132813 35.082031v-222.007812c0-10.320313 8.394532-18.714844 18.714844-18.714844h13.703125c10.320313 0 18.714844 8.394531 18.714844 18.714844v22.371093c0 4.144532 3.355469 7.5 7.5 7.5 4.140625 0 7.496094-3.355468 7.496094-7.5v-22.371093c0-18.589844-15.121094-33.710938-33.710938-33.710938h-13.703125c-18.589844 0-33.714844 15.121094-33.714844 33.710938v227.953125c-4.472656 1.253906-9.0625 2.105468-13.726562 2.554687v-158.113281c0-18.683594-15.199219-33.882812-33.878906-33.882812h-13.371094c-18.679688 0-33.878906 15.199218-33.878906 33.882812v76.414062l-13.730469 7.289063v-25.429687c0-16.820313-13.683594-30.503907-30.5-30.503907h-20.125c-16.820313 0-30.5 13.683594-30.5 30.503907v68.492187l-24.488281 12.996094-68.765625 19.652343c-11.964844 3.417969-21.957031 11.253907-28.128907 22.058594-6.175781 10.808594-7.851562 23.394532-4.71875 35.4375l7.691407 29.59375c1.039062 4.007813 5.132812 6.410156 9.144531 5.371094 4.007812-1.042969 6.414062-5.136719 5.371094-9.148438l-7.691406-29.589843c-4.460938-17.164063 5.402343-34.429688 22.457031-39.300781l62.871093-17.96875 47.253907 126.117187c3.164062 8.445313 2.664062 32.539063-22.332031 41.417969l-47.511719 10.792968c-16.558594 3.757813-32.875-6.167968-37.148438-22.605468l-9.644531-37.113282c-1.042969-4.007812-5.136719-6.414062-9.144531-5.375-4.011719 1.042969-6.414063 5.136719-5.375 9.148438l9.648437 37.117188c5.421875 20.851562 23.945313 34.628906 44.566406 34.628906 15.152344 0 57.933594-11.96875 57.933594-11.96875 13.019532-2.953125 24.121094-11.390625 30.453125-23.140625 5.226563-9.695313 6.777344-20.851563 4.535157-31.480469l164.375-40.242188c13.59375-3.332031 26.5-9.789062 37.3125-18.675781l79.992187-65.726562c24.386719-21.628907 10.082031-46.144531 2.910156-53.28125zm-192.832031-124.363281h13.371094c10.410156 0 18.878906 8.472656 18.878906 18.882812v158.488281l-47.324219-.019531c-4.347656-.039062-1.339843-2.910156-1.101562-3.105469l13.628906-11.039062c12.714844-10.300781 21.019531-24.621094 24.679687-42.570313 2.324219-11.386718-2.019531-22.785156-11.328124-29.746094-8.695313-6.5-19.878907-7.75-29.683594-3.453124v-68.554688c0-10.410156 8.46875-18.882812 18.878906-18.882812zm-113.734375 77.15625c0-8.546876 6.953125-15.503907 15.5-15.503907h20.125c8.546875 0 15.503906 6.957031 15.503906 15.503907v33.390624l-51.132812 27.140626v-60.53125zm294.136719 88.902343-79.996094 65.726563c-9.085938 7.46875-19.929688 12.894531-31.355469 15.691406l-165.585937 40.542969-44.53125-118.839844 127.148437-67.492187c5.167969-2.746094 11.054688-2.289063 15.738281 1.214843 4.683594 3.503907 6.785157 9.011719 5.617188 14.738281-2.949219 14.449219-9.484375 25.859376-19.425781 33.910157l-13.628907 11.042969c-5.585937 4.523437-7.644531 11.824218-5.246093 18.601562 2.398437 6.773438 8.59375 11.15625 15.78125 11.15625l54.644531.023438h.039062c19.453126 0 38.148438-5.914063 54.0625-17.105469l61.070313-42.945313c8.550781-6.015625 20.0625-4.953125 27.367187 2.523438 4.207032 4.296875 12.441407 17.066406-1.699218 31.210937zm0 0"/><path d="m123.414062 448.789062c0-16.292968-13.253906-29.550781-29.546874-29.550781-16.292969 0-29.546876 13.257813-29.546876 29.550781 0 16.289063 13.253907 29.546876 29.546876 29.546876 16.292968 0 29.546874-13.257813 29.546874-29.546876zm-44.09375 0c0-8.023437 6.523438-14.550781 14.546876-14.550781 8.019531 0 14.546874 6.527344 14.546874 14.550781 0 8.019532-6.523437 14.546876-14.546874 14.546876-8.023438 0-14.546876-6.527344-14.546876-14.546876zm0 0"/><path d="m39.933594 235.480469 109.023437-109.863281 24.523438 12.683593c8.785156 4.542969 19.476562 2.988281 26.601562-3.871093l59.34375-57.125s-1.632812 29.339843 23.074219 29.339843c12.71875 0 23.070312-10.351562 23.070312-23.074219v-60.5c0-.070312-.003906-.144531-.003906-.21875-.082031-15.785156-11.625-22.851562-23.066406-22.851562h-59.972656c-12.722656 0-23.070313 10.351562-23.070313 23.070312 0 25.359376 25.808594 23.070313 25.808594 23.070313l-45.273437 43.578125-24.878907-12.867188c-8.996093-4.65625-19.835937-2.949218-26.976562 4.238282l-120.953125 121.886718c-8.960938 9.03125-8.90625 23.667969.125 32.628907 4.351562 4.316406 19.210937 13.289062 32.625-.125zm-22.105469-21.9375 120.953125-121.886719c1.5625-1.570312 4.070312-4.320312 9.441406-1.480469l29.652344 15.335938c2.855469 1.476562 6.332031.972656 8.648438-1.257813l62.546874-60.207031c2.203126-2.121094 2.898438-5.371094 1.753907-8.207031-1.144531-2.839844-3.894531-4.695313-6.957031-4.695313h-21.339844c-4.449219 0-8.070313-3.621093-8.070313-8.074219 0-4.449218 3.621094-8.070312 8.070313-8.070312h59.972656c2.207031 0 8.066406 0 8.066406 8.023438 0 .066406.003906.132812.003906.203124v60.34375c0 4.449219-3.621093 8.070313-8.070312 8.070313-4.453125 0-8.074219-3.621094-8.074219-8.070313v-23.894531c0-3.007812-1.796875-5.726562-4.5625-6.902343-2.765625-1.179688-5.96875-.585938-8.136719 1.5l-72.046874 69.351562c-2.492188 2.398438-6.234376 2.945312-9.304688 1.355469l-29.414062-15.214844c-2.910157-1.503906-6.460938-.945313-8.769532 1.378906l-112.902344 113.769531c-4.921874 4.921876-9.894531 1.554688-11.417968.042969-3.15625-3.136719-3.175782-8.257812-.042969-11.414062zm0 0"/></svg>