<?xml version="1.0" encoding="UTF-8"?>
<svg width="21px" height="22px" viewBox="0 0 21 22" version="1.1" xmlns="http://www.w3.org/2000/svg" xmlns:xlink="http://www.w3.org/1999/xlink">
    <!-- Generator: Sketch 55.2 (78181) - https://sketchapp.com -->
    <title>Google icon</title>
    <desc>Created with Sketch.</desc>
    <g id="Job-Application-(Desktop)" stroke="none" stroke-width="1" fill="none" fill-rule="evenodd">
        <g id="10-–-Register" transform="translate(-207.000000, -367.000000)" fill-rule="nonzero">
            <g id="Sign-In" transform="translate(190.500000, 238.000000)">
                <g id="Google-Button" transform="translate(0.000000, 116.000000)">
                    <g id="Google-icon" transform="translate(16.500000, 13.500000)">
                        <path d="M4.65404297,12.6905625 L3.9230625,15.4194141 L1.2513457,15.4759336 C0.452894531,13.9949824 0,12.3005859 0,10.5 C0,8.7588457 0.423445312,7.1169082 1.17403125,5.67114844 L1.17460547,5.67114844 L3.55318359,6.10722656 L4.59514453,8.47153125 C4.37706445,9.10731445 4.25820117,9.78981445 4.25820117,10.5 C4.2582832,11.2707656 4.39790039,12.009252 4.65404297,12.6905625 Z" id="Path" fill="#FBBB00"></path>
                        <path d="M20.8165371,8.53846875 C20.937123,9.17363672 21,9.82959961 21,10.5 C21,11.2517344 20.9209629,11.9850117 20.7703945,12.6923262 C20.2592578,15.0992461 18.923666,17.2009688 17.0734922,18.6882773 L17.072918,18.6877031 L14.0769727,18.5348379 L13.6529531,15.8878945 C14.8806328,15.1679063 15.8400703,14.041166 16.3454648,12.6923262 L10.7308359,12.6923262 L10.7308359,8.53846875 L16.427373,8.53846875 L20.8165371,8.53846875 L20.8165371,8.53846875 Z" id="Path" fill="#518EF8"></path>
                        <path d="M17.072877,18.6877031 L17.0734512,18.6882773 C15.2740547,20.1346113 12.9882539,21 10.5,21 C6.5013457,21 3.02482031,18.7650176 1.2513457,15.4759746 L4.65404297,12.6906035 C5.54075977,15.057123 7.82364844,16.7417578 10.5,16.7417578 C11.6503652,16.7417578 12.7280918,16.4307773 13.6528711,15.8878945 L17.072877,18.6877031 Z" id="Path" fill="#28B446"></path>
                        <path d="M17.2021172,2.41729687 L13.8005684,5.20209375 C12.8434687,4.60383984 11.7120937,4.25824219 10.5,4.25824219 C7.76306836,4.25824219 5.43748242,6.02015039 4.59518555,8.47153125 L1.17460547,5.67114844 L1.17403125,5.67114844 C2.92154297,2.30191992 6.44191406,0 10.5,0 C13.0476855,0 15.3836484,0.907511719 17.2021172,2.41729687 Z" id="Path" fill="#F14336"></path>
                    </g>
                </g>
            </g>
        </g>
    </g>
</svg>