<?xml version="1.0" encoding="UTF-8"?>
<svg viewBox="0 0 16 16" version="1.1" xmlns="http://www.w3.org/2000/svg" xmlns:xlink="http://www.w3.org/1999/xlink">
    <!-- Generator: Sketch 55.2 (78181) - https://sketchapp.com -->
    <title>Info bubble</title>
    <desc>Created with Sketch.</desc>
    <g id="Symbols-Page" stroke="none" stroke-width="1" fill="none" fill-rule="evenodd">
        <g id="Info-bubble">
            <g>
                <path d="M7.39157347,5.76203445 C7.32075098,5.76203445 7.26280617,5.73789078 7.21773732,5.68960272 C7.17266846,5.64131466 7.15013437,5.58176027 7.15013437,5.51093778 L7.15013437,4.61278433 C7.15013437,4.54196184 7.17427804,4.48240746 7.2225661,4.4341194 C7.27085416,4.38583134 7.32718939,4.36168767 7.39157347,4.36168767 L8.59876897,4.36168767 C8.66959146,4.36168767 8.72914584,4.38583134 8.7774339,4.4341194 C8.82572196,4.48240746 8.84986563,4.54196184 8.84986563,4.61278433 L8.84986563,5.51093778 C8.84986563,5.58176027 8.82572196,5.64131466 8.7774339,5.68960272 C8.72914584,5.73789078 8.66959146,5.76203445 8.59876897,5.76203445 L7.39157347,5.76203445 Z M7.39157347,11.4793123 C7.32718939,11.4793123 7.27085416,11.4551687 7.2225661,11.4068806 C7.17427804,11.3585925 7.15013437,11.3022573 7.15013437,11.2378732 L7.15013437,6.69881815 C7.15013437,6.62799566 7.17427804,6.57005086 7.2225661,6.524982 C7.27085416,6.47991315 7.32718939,6.45737905 7.39157347,6.45737905 L8.59876897,6.45737905 C8.66959146,6.45737905 8.72914584,6.47991315 8.7774339,6.524982 C8.82572196,6.57005086 8.84986563,6.62799566 8.84986563,6.69881815 L8.84986563,11.2378732 C8.84986563,11.3086957 8.82572196,11.3666405 8.7774339,11.4117094 C8.72914584,11.4567782 8.66959146,11.4793123 8.59876897,11.4793123 L7.39157347,11.4793123 Z" id="i" fill="#BFC5D2" fill-rule="nonzero"></path>
                <circle id="Oval" stroke="#BFC5D2" cx="8" cy="8" r="7.5"></circle>
            </g>
        </g>
    </g>
</svg>